<svg width="16" height="16" viewBox="0 0 16 16" fill="none" xmlns="http://www.w3.org/2000/svg">
<path d="M11 0H5C2.23858 0 0 2.23858 0 5V11C0 13.7614 2.23858 16 5 16H11C13.7614 16 16 13.7614 16 11V5C16 2.23858 13.7614 0 11 0Z" fill="#9327FF"/>
<path fill-rule="evenodd" clip-rule="evenodd" d="M6.53739 8.6643H4.93374C4.41995 8.6643 4.14489 8.05709 4.48223 7.66785L8.41092 3.20461C8.77421 2.78942 9.45926 3.04891 9.45926 3.59903V7.3357H11.0629C11.5819 7.3357 11.857 7.94291 11.5144 8.33215L7.58574 12.7954C7.22245 13.2106 6.53739 12.9511 6.53739 12.401V8.6643Z" fill="white"/>
</svg>
