<svg width="16" height="16" viewBox="0 0 16 16" fill="none" xmlns="http://www.w3.org/2000/svg">
<path d="M11 0H5C2.23858 0 0 2.23858 0 5V11C0 13.7614 2.23858 16 5 16H11C13.7614 16 16 13.7614 16 11V5C16 2.23858 13.7614 0 11 0Z" fill="#9327FF"/>
<g clip-path="url(#clip0_2012_3328)">
<path d="M3.3882 10.7251V8.83829C3.3882 8.82319 3.38817 8.6887 3.38812 8.57711C3.38809 8.4938 3.45575 8.42606 3.53906 8.42606H7.44965C7.53267 8.42606 7.59997 8.49336 7.59997 8.57638L7.59997 12.8497C7.59997 12.9327 7.53267 13 7.44965 13H5.44513C5.37387 13 5.30345 12.9964 5.23406 12.9893C4.63847 12.9326 4.15191 12.6536 3.82814 12.2111C3.55594 11.863 3.3937 11.4247 3.3937 10.9486V10.9144C3.39005 10.8523 3.3882 10.7892 3.3882 10.7251Z" fill="white"/>
<path d="M8.40245 12.8497C8.40245 12.9327 8.46975 13 8.55277 13H10.5604C10.6591 13 10.7562 12.993 10.8512 12.9796C11.3593 12.9118 11.7832 12.6786 12.0876 12.3183C12.4136 11.9551 12.6119 11.475 12.6119 10.9486L12.6049 8.57594C12.6047 8.49309 12.5375 8.42606 12.4546 8.42606H8.55277C8.46975 8.42606 8.40245 8.49336 8.40245 8.57638L8.40245 12.8497Z" fill="white"/>
<path fill-rule="evenodd" clip-rule="evenodd" d="M12.4518 7.62673C12.5348 7.62673 12.6021 7.55942 12.6021 7.47639L12.6021 7.38508C12.5281 6.43691 12.0329 5.55606 11.0282 5.33683C11.2033 5.09308 11.3068 4.79233 11.3068 4.46804C11.3068 3.66114 10.6664 3 9.87516 3C8.91214 3 8.33429 3.70795 8.00112 4.36907C7.66789 3.70795 7.0901 3 6.12182 3C5.33574 3 4.69022 3.66114 4.69022 4.46804C4.69022 4.79249 4.79459 5.09337 4.9705 5.33719C3.9666 5.55702 3.47194 6.4374 3.398 7.38508C3.39603 7.41411 3.3943 7.44318 3.39279 7.47228C3.38839 7.55683 3.45661 7.62673 3.54127 7.62673H12.4518ZM6.12182 5.15521C5.76262 5.15521 5.47109 4.84807 5.47109 4.46804C5.47109 4.08802 5.76262 3.78087 6.12182 3.78087C6.87667 3.78087 7.29313 4.6086 7.48054 5.15521H6.12182ZM9.87516 5.15521H8.51644C8.70906 4.6086 9.13073 3.78087 9.87516 3.78087C10.2344 3.78087 10.5259 4.08802 10.5259 4.46804C10.5259 4.84807 10.2344 5.15521 9.87516 5.15521Z" fill="white"/>
</g>
<defs>
<clipPath id="clip0_2012_3328">
<rect width="10" height="10" fill="white" transform="translate(3 3)"/>
</clipPath>
</defs>
</svg>
