<svg width="16" height="16" viewBox="0 0 16 16" fill="none" xmlns="http://www.w3.org/2000/svg">
<path d="M11 0H5C2.23858 0 0 2.23858 0 5V11C0 13.7614 2.23858 16 5 16H11C13.7614 16 16 13.7614 16 11V5C16 2.23858 13.7614 0 11 0Z" fill="#EE45F1"/>
<path fill-rule="evenodd" clip-rule="evenodd" d="M9.23067 3.80793C9.15673 3.66294 9.05866 3.53159 8.94065 3.4195C8.80921 3.28664 8.65274 3.18116 8.48028 3.10916C8.30782 3.03715 8.1228 3.00005 7.93591 3H4.31059C3.93826 3.00677 3.58339 3.15909 3.32201 3.42435C3.06063 3.6896 2.91354 4.04667 2.91225 4.41906V10.116C2.90744 10.3077 2.9417 10.4984 3.01293 10.6765C3.08416 10.8546 3.19087 11.0163 3.32657 11.1518C3.5965 11.4071 3.95464 11.5481 4.32612 11.5454H7.95145C8.32876 11.544 8.69023 11.3936 8.95703 11.1268C9.22383 10.86 9.37432 10.4985 9.37569 10.1212V4.42424C9.37783 4.21011 9.32807 3.99864 9.23067 3.80793ZM4.38215 7.63866C4.38215 8.18166 4.80816 8.62183 5.33367 8.62183C5.64385 8.62183 5.95499 8.47389 6.12855 8.23648L6.18039 8.15398L6.23219 8.23644C6.40575 8.47387 6.64405 8.62183 6.95423 8.62183C7.47974 8.62183 7.90563 8.18166 7.90563 7.63866C7.90563 6.74169 6.6463 5.78458 6.27951 5.52484C6.21916 5.48211 6.14125 5.4813 6.08006 5.52282C5.70163 5.77959 4.38215 6.73936 4.38215 7.63866ZM6.19581 8.50695C6.1873 8.49826 6.17331 8.49826 6.1648 8.50695L5.66589 9.01634C5.65244 9.03007 5.66217 9.05323 5.6814 9.05323H6.67922C6.69845 9.05323 6.70818 9.03007 6.69473 9.01634L6.19581 8.50695Z" fill="white"/>
<path fill-rule="evenodd" clip-rule="evenodd" d="M12.8508 6.36627L11.2298 11.825C11.1421 12.1219 10.9615 12.3828 10.7144 12.5692C10.4673 12.7557 10.1669 12.8579 9.85731 12.8608C9.7217 12.8549 9.58752 12.8305 9.45853 12.7883L7.87374 12.317H7.94107C8.524 12.3143 9.08227 12.0815 9.49447 11.6693C9.90666 11.2571 10.1394 10.6988 10.1422 10.1159V4.41896C10.1525 4.30006 10.1525 4.18049 10.1422 4.0616L11.9082 4.57951C12.2684 4.69401 12.5691 4.94554 12.7455 5.27983C12.9218 5.61412 12.9596 6.00434 12.8508 6.36627ZM11.7627 5.4549L12.1568 5.57083L11.8489 6.61752C11.8196 6.71715 11.771 6.79957 11.7018 6.86246C11.6336 6.92494 11.5525 6.96466 11.4596 6.98157C11.3667 6.9985 11.2682 6.99084 11.1652 6.96052C11.0732 6.93348 10.9931 6.89235 10.9258 6.83651C10.8578 6.77914 10.8102 6.70786 10.7847 6.62394C10.7588 6.53747 10.7631 6.44214 10.7936 6.3403L10.8076 6.2933L11.2025 6.40944L11.1901 6.45591C11.1815 6.488 11.1806 6.51458 11.1851 6.53672C11.1902 6.55881 11.2001 6.57687 11.2147 6.59198C11.2298 6.60678 11.2509 6.61908 11.2798 6.6276C11.3104 6.63659 11.3346 6.63672 11.3542 6.63137C11.3745 6.62569 11.393 6.61385 11.41 6.59345C11.4272 6.57279 11.4426 6.54294 11.4548 6.50159L11.7627 5.4549Z" fill="white"/>
</svg>
