<svg width="16" height="16" viewBox="0 0 16 16" fill="none" xmlns="http://www.w3.org/2000/svg">
<path d="M11 0H5C2.23858 0 0 2.23858 0 5V11C0 13.7614 2.23858 16 5 16H11C13.7614 16 16 13.7614 16 11V5C16 2.23858 13.7614 0 11 0Z" fill="#00A1FF"/>
<path d="M6.59933 5.07971C6.71239 4.40547 6.48801 4.12773 6.29842 3.9024H7.10722C7.42725 3.9024 7.56466 4.0404 7.57336 4.43865L7.66033 6.56968L8.60827 4.23079C8.69349 4.0142 8.85699 3.9024 9.14224 3.9024H9.85711C10.1076 3.9024 10.3146 4.04913 10.332 4.49106L10.4189 6.56094L11.3686 4.24302C11.4712 3.99324 11.6521 3.9059 11.9113 3.9059H12.6105C12.9897 3.9059 13.0836 4.26049 12.9288 4.61508L11.5234 8.07886C11.386 8.41598 11.2555 8.60638 10.9459 8.60638H9.85015C9.49707 8.60638 9.30748 8.37231 9.29878 7.99152L9.22051 6.2605L8.48825 8.07013C8.36824 8.36358 8.23779 8.59764 7.93688 8.59764H6.97155C6.59237 8.59764 6.368 8.39851 6.3593 7.93912L6.30712 6.66575L6.59933 5.07971Z" fill="white"/>
<path d="M5.79223 4.04594C6.07575 4.24507 6.23229 4.54726 6.14532 4.97171L5.58699 7.88877C5.50872 8.36563 5.04432 8.6783 4.56948 8.59096C4.12073 8.50362 3.79199 8.0879 3.87896 7.57785L4.18856 5.88875L3.99897 5.97609C3.63719 6.13155 3.22323 5.97609 3.05973 5.61277C2.90493 5.25818 3.05973 4.83372 3.42151 4.66953L4.86169 4.01974C5.20608 3.84681 5.53307 3.87302 5.79223 4.04594Z" fill="white"/>
<path fill-rule="evenodd" clip-rule="evenodd" d="M5.76207 11.4768C5.87444 11.2737 5.93062 11.0261 5.93062 10.7339C5.93062 10.4418 5.87444 10.1941 5.76207 9.99101C5.64971 9.78789 5.49758 9.6336 5.3057 9.52815C5.11468 9.4227 4.90032 9.36998 4.66263 9.36998C4.42407 9.36998 4.20928 9.4227 4.01826 9.52815C3.82724 9.6336 3.67555 9.78789 3.56319 9.99101C3.45169 10.1941 3.39594 10.4418 3.39594 10.7339C3.39594 11.0252 3.45169 11.2724 3.56319 11.4755C3.67555 11.6778 3.82724 11.8321 4.01826 11.9384C4.20928 12.0447 4.42407 12.0978 4.66263 12.0978C4.90032 12.0978 5.11468 12.0451 5.3057 11.9397C5.49758 11.8342 5.64971 11.6799 5.76207 11.4768ZM5.20068 10.2957C5.24995 10.415 5.27458 10.561 5.27458 10.7339C5.27458 10.9068 5.24995 11.0529 5.20068 11.1721C5.15228 11.2914 5.08227 11.3817 4.99065 11.4431C4.89989 11.5045 4.79055 11.5352 4.66263 11.5352C4.53557 11.5352 4.42623 11.5045 4.33461 11.4431C4.24299 11.3817 4.17255 11.2914 4.12328 11.1721C4.07488 11.0529 4.05067 10.9068 4.05067 10.7339C4.05067 10.561 4.07488 10.415 4.12328 10.2957C4.17255 10.1764 4.24299 10.0861 4.33461 10.0247C4.42623 9.96335 4.53557 9.93266 4.66263 9.93266C4.79055 9.93266 4.89989 9.96335 4.99065 10.0247C5.08227 10.0861 5.15228 10.1764 5.20068 10.2957Z" fill="white"/>
<path d="M8.56514 12.0615V9.40628H7.92466V10.9362H7.90262L6.85763 9.40628H6.30531V12.0615H6.94709V10.5291H6.96394L8.0206 12.0615H8.56514Z" fill="white"/>
<path d="M8.96868 12.0615V9.40628H9.61045V11.5403H10.7151V12.0615H8.96868Z" fill="white"/>
<path d="M10.858 9.40628H10.1411L11.1122 11.1747V12.0615H11.75V11.1747L12.7211 9.40628H12.0042L11.4428 10.5174H11.4194L10.858 9.40628Z" fill="white"/>
</svg>
