<svg width="16" height="16" viewBox="0 0 16 16" fill="none" xmlns="http://www.w3.org/2000/svg">
<path d="M11 0H5C2.23858 0 0 2.23858 0 5V11C0 13.7614 2.23858 16 5 16H11C13.7614 16 16 13.7614 16 11V5C16 2.23858 13.7614 0 11 0Z" fill="#F22053"/>
<path d="M3.05273 9.02744C3.05273 10.5523 4.24906 11.7883 5.72477 11.7883C6.59581 11.7883 7.46956 11.3729 7.95696 10.7062L8.10251 10.4746L8.24799 10.7061C8.73539 11.3729 9.40455 11.7883 10.2756 11.7883C11.7513 11.7883 12.9473 10.5523 12.9473 9.02744C12.9473 6.50858 9.41088 3.82083 8.38086 3.09142C8.2114 2.97142 7.99262 2.96918 7.82079 3.08576C6.75808 3.80682 3.05273 6.50201 3.05273 9.02744Z" fill="white"/>
<path d="M8.17403 11.4945C8.13482 11.4545 8.07036 11.4545 8.03115 11.4945L6.72303 12.8301C6.66104 12.8934 6.70588 13 6.79447 13H9.41071C9.4993 13 9.54414 12.8934 9.48215 12.8301L8.17403 11.4945Z" fill="white"/>
</svg>
