<svg width="16" height="16" viewBox="0 0 16 16" fill="none" xmlns="http://www.w3.org/2000/svg">
<path d="M11 0H5C2.23858 0 0 2.23858 0 5V11C0 13.7614 2.23858 16 5 16H11C13.7614 16 16 13.7614 16 11V5C16 2.23858 13.7614 0 11 0Z" fill="#00A1FF"/>
<g clip-path="url(#clip0_2012_3337)">
<path fill-rule="evenodd" clip-rule="evenodd" d="M10.3316 3H11.301C12.4133 3 13 3.58674 13 4.69898V5.66837C13 6.78061 12.4133 7.36735 11.301 7.36735H10.3316C9.21939 7.36735 8.63266 6.78061 8.63266 5.66837V4.69898C8.63266 3.58674 9.21939 3 10.3316 3ZM5.67347 8.62755C6.78572 8.62755 7.37245 9.21428 7.36735 10.3316V11.301C7.36735 12.4133 6.78061 13 5.66837 13H4.69898C3.58674 13 3 12.4133 3 11.2959V10.3265C3 9.21428 3.58674 8.62755 4.70408 8.62755H5.67347ZM5.18878 7.37755C6.3976 7.37755 7.37755 6.3976 7.37755 5.18878C7.37755 3.97995 6.3976 3 5.18878 3C3.97995 3 3 3.97995 3 5.18878C3 6.3976 3.97995 7.37755 5.18878 7.37755ZM13 10.8112C13 12.0201 12.0201 13 10.8112 13C9.60241 13 8.62246 12.0201 8.62246 10.8112C8.62246 9.6024 9.60241 8.62245 10.8112 8.62245C12.0201 8.62245 13 9.6024 13 10.8112Z" fill="white"/>
</g>
<defs>
<clipPath id="clip0_2012_3337">
<rect width="10" height="10" fill="white" transform="translate(3 3)"/>
</clipPath>
</defs>
</svg>
