<svg width="16" height="16" viewBox="0 0 16 16" fill="none" xmlns="http://www.w3.org/2000/svg">
<path d="M11 0H5C2.23858 0 0 2.23858 0 5V11C0 13.7614 2.23858 16 5 16H11C13.7614 16 16 13.7614 16 11V5C16 2.23858 13.7614 0 11 0Z" fill="#00A1FF"/>
<path fill-rule="evenodd" clip-rule="evenodd" d="M12.0981 6.58036L12.7781 7.37016C13.0731 7.71507 13.0731 8.28493 12.7831 8.62984L12.1031 9.41965C11.9731 9.56961 11.868 9.85454 11.868 10.0495V10.8993C11.868 11.4291 11.433 11.864 10.903 11.864H10.0529C9.85292 11.864 9.57291 11.969 9.4229 12.099L8.63285 12.7788C8.28283 13.0737 7.71779 13.0737 7.37277 12.7788L6.58272 12.099C6.43271 11.969 6.14769 11.864 5.95268 11.864H5.08763C4.5576 11.864 4.12257 11.4291 4.12257 10.8993V10.0445C4.12257 9.84954 4.01756 9.56961 3.89256 9.41965L3.21751 8.62484C2.9275 8.27993 2.9275 7.72007 3.21751 7.37516L3.89256 6.58036C4.01756 6.43039 4.12257 6.15046 4.12257 5.95551V5.10072C4.12257 4.57086 4.5576 4.13597 5.08763 4.13597H5.95268C6.14769 4.13597 6.43271 4.03099 6.58272 3.90602L7.36777 3.22119C7.71779 2.92627 8.28283 2.92627 8.62785 3.22119L9.4179 3.90102C9.56791 4.03099 9.85292 4.13597 10.0479 4.13597H10.898C11.428 4.13597 11.863 4.57086 11.863 5.10072V5.95051C11.863 6.15046 11.9681 6.43039 12.0981 6.58036ZM4.81278 9.01428V7.00117H5.27176L6.03188 8.00005H6.05999V7.00117H6.61802V9.01428H6.16322L5.39851 8.00005H5.37081V9.01428H4.81278ZM6.93833 9.01428V7.00117H8.35854V7.46992H7.52985V7.79637H8.30692V8.22048H7.52985V8.54553H8.35854V9.01428H6.93833ZM8.53515 7.00117L9.05413 9.01428H9.61216L9.90234 7.89124H9.93024L10.2274 9.01428H10.7812L11.3002 7.00117H10.692L10.4701 8.2428H10.4422L10.1451 7.00117H9.6875L9.40429 8.2428H9.37639L9.14899 7.00117H8.53515Z" fill="white"/>
</svg>
