<svg width="16" height="16" viewBox="0 0 16 16" fill="none" xmlns="http://www.w3.org/2000/svg">
<path d="M11 0H5C2.23858 0 0 2.23858 0 5V11C0 13.7614 2.23858 16 5 16H11C13.7614 16 16 13.7614 16 11V5C16 2.23858 13.7614 0 11 0Z" fill="#FF511E"/>
<g clip-path="url(#clip0_2012_3321)">
<path fill-rule="evenodd" clip-rule="evenodd" d="M7.99994 3.62549C8.12126 3.62549 8.23509 3.68419 8.30543 3.78304L10.2662 6.53834C10.3688 6.68247 10.5581 6.7353 10.7205 6.6651L12.4762 5.90599C12.6042 5.85062 12.7525 5.87094 12.8609 5.95874C12.9694 6.04654 13.0201 6.18729 12.9926 6.32408L11.8363 12.0734C11.8011 12.2484 11.6473 12.3744 11.4687 12.3744H4.53116C4.35258 12.3744 4.19878 12.2484 4.16357 12.0734L3.00731 6.32408C2.9798 6.18729 3.03052 6.04654 3.13897 5.95874C3.24741 5.87094 3.39564 5.85062 3.52371 5.90599L5.27938 6.6651C5.44175 6.7353 5.63111 6.68247 5.73368 6.53834L7.69445 3.78304C7.76479 3.68419 7.87861 3.62549 7.99994 3.62549ZM9.62233 8.9923L9.18177 9.43318C9.10745 9.50755 9.06499 9.65097 9.09153 9.75721L9.21892 10.3043C9.31977 10.7346 9.09153 10.9046 8.70935 10.6762L8.17854 10.3628C8.083 10.3043 7.92376 10.3043 7.82821 10.3628L7.29741 10.6762C6.91523 10.8992 6.68698 10.7346 6.78784 10.3043L6.91523 9.75721C6.93646 9.65628 6.8993 9.50755 6.82499 9.43318L6.37381 8.9923C6.11371 8.73202 6.19864 8.47174 6.55959 8.41331L7.12755 8.3177C7.22309 8.30177 7.33456 8.21678 7.37703 8.13179L7.6902 7.50499C7.86006 7.16503 8.13608 7.16503 8.30594 7.50499L8.61911 8.13179C8.66158 8.21678 8.77305 8.30177 8.8739 8.3177L9.44186 8.41331C9.7975 8.47174 9.88243 8.73202 9.62233 8.9923Z" fill="white"/>
</g>
<defs>
<clipPath id="clip0_2012_3321">
<rect width="10" height="10" fill="white" transform="translate(3 3)"/>
</clipPath>
</defs>
</svg>
