<svg width="16" height="16" viewBox="0 0 16 16" fill="none" xmlns="http://www.w3.org/2000/svg">
<path d="M11 0H5C2.23858 0 0 2.23858 0 5V11C0 13.7614 2.23858 16 5 16H11C13.7614 16 16 13.7614 16 11V5C16 2.23858 13.7614 0 11 0Z" fill="#F22053"/>
<path fill-rule="evenodd" clip-rule="evenodd" d="M9.61574 4.23503C9.66403 4.38956 9.60608 4.56824 9.45637 4.71794L9.09418 5.08013C9.07487 5.09462 9.06038 5.14774 9.06521 5.17189L9.16662 5.61617C9.24389 5.94938 9.11833 6.09908 9.03624 6.15704C8.99277 6.18601 8.92034 6.22464 8.81892 6.22464C8.732 6.22464 8.62093 6.2005 8.48571 6.1184L8.05591 5.86246C8.0366 5.84797 7.97382 5.84797 7.9545 5.86246L7.51988 6.1184C7.2253 6.29225 7.04662 6.21498 6.96452 6.15704C6.88243 6.09908 6.75687 5.94938 6.83414 5.61617L6.93555 5.17189C6.94038 5.15257 6.92589 5.09462 6.90657 5.08013L6.54922 4.71794C6.39951 4.56824 6.34156 4.38956 6.38985 4.23503C6.44297 4.08049 6.58785 3.96942 6.80033 3.93562L7.26393 3.85835C7.28325 3.85835 7.32671 3.82455 7.33154 3.80523L7.58749 3.29334C7.78065 2.90218 8.22011 2.90218 8.41327 3.29334L8.66922 3.80523C8.67888 3.82455 8.72234 3.85835 8.74166 3.85835L9.20526 3.93562C9.41774 3.96942 9.56744 4.08049 9.61574 4.23503ZM7.45802 7.20496H8.54395C8.9954 7.20496 9.35737 7.63958 9.35737 8.17079V12.517C9.35737 12.7826 9.17435 13 8.95066 13H7.05131C6.82761 13 6.64459 12.7826 6.64459 12.517V8.17079C6.64459 7.63958 7.01063 7.20496 7.45802 7.20496ZM4.16815 9.13664H5.36768C5.62977 9.13664 5.84577 9.35395 5.84577 9.61955V12.5171C5.84577 12.7827 5.62977 13 5.36768 13H3.69162C3.42953 13 3.21509 12.7827 3.21509 12.5171V10.1025C3.21509 9.57126 3.64396 9.13664 4.16815 9.13664ZM11.8333 10.5782H10.635C10.3729 10.5782 10.1569 10.7955 10.1569 11.0611V12.5098C10.1569 12.7754 10.3729 12.9928 10.635 12.9928H12.3099C12.572 12.9928 12.7864 12.7754 12.7864 12.5098V11.544C12.7864 11.0128 12.3575 10.5782 11.8333 10.5782Z" fill="white"/>
</svg>
