<svg width="16" height="16" viewBox="0 0 16 16" fill="none" xmlns="http://www.w3.org/2000/svg">
<path d="M11 0H5C2.23858 0 0 2.23858 0 5V11C0 13.7614 2.23858 16 5 16H11C13.7614 16 16 13.7614 16 11V5C16 2.23858 13.7614 0 11 0Z" fill="#FF511E"/>
<g clip-path="url(#clip0_2412_577)">
<path d="M4.77925 10.1741L4.1743 10.346L3.98358 8.65669L4.57041 8.48989C4.73425 8.44332 4.88026 8.43785 5.00845 8.4735C5.13701 8.50847 5.24148 8.5815 5.32186 8.6926C5.40263 8.80302 5.45309 8.94759 5.47324 9.12632C5.4928 9.29897 5.47808 9.45583 5.42906 9.59689C5.38058 9.7378 5.30115 9.85771 5.19078 9.95662C5.08026 10.055 4.94309 10.1275 4.77925 10.1741ZM4.52407 9.88732L4.70918 9.83471C4.7995 9.80904 4.8747 9.77007 4.93476 9.71781C4.9952 9.66487 5.03796 9.59568 5.06305 9.51023C5.08799 9.42425 5.0933 9.31916 5.079 9.19495C5.06567 9.07615 5.03943 8.98684 5.00029 8.92702C4.96153 8.86653 4.90924 8.83031 4.84341 8.81838C4.77796 8.80576 4.69903 8.81259 4.60661 8.83886L4.41283 8.89394L4.52407 9.88732Z" fill="white"/>
<path d="M5.79458 9.88546L5.60386 8.19614L6.27025 8.00673C6.39103 7.9724 6.49805 7.96553 6.59131 7.98613C6.68442 8.00621 6.75953 8.05183 6.81665 8.12299C6.87362 8.19364 6.90859 8.28671 6.92156 8.40221C6.93535 8.51861 6.92238 8.62474 6.88265 8.7206C6.8433 8.81578 6.78087 8.89766 6.69537 8.96623C6.61039 9.03466 6.50646 9.08633 6.38358 9.12126L5.96216 9.24104L5.92683 8.91906L6.27578 8.81988C6.33407 8.80331 6.38232 8.78137 6.42052 8.75405C6.45858 8.72621 6.48573 8.69295 6.50199 8.65428C6.51861 8.61493 6.52404 8.56912 6.51826 8.51684C6.51195 8.46472 6.49656 8.42454 6.47208 8.39631C6.44797 8.36741 6.41496 8.35011 6.37305 8.34443C6.33152 8.33808 6.28187 8.34311 6.2241 8.35953L6.03191 8.41416L6.18449 9.77463L5.79458 9.88546ZM6.61532 8.85533L7.10451 9.51313L6.67916 9.63403L6.19863 8.97377L6.61532 8.85533Z" fill="white"/>
<path d="M8.71104 8.21197C8.73104 8.39415 8.71499 8.55734 8.6629 8.70155C8.61119 8.84508 8.53262 8.96503 8.42721 9.0614C8.32232 9.15761 8.1995 9.22572 8.05877 9.26573C7.91016 9.30797 7.7721 9.31145 7.64459 9.27618C7.51708 9.24092 7.41066 9.16702 7.32533 9.05449C7.24052 8.94182 7.18741 8.7909 7.16599 8.60175C7.14494 8.41988 7.16013 8.25664 7.21154 8.11206C7.26348 7.96733 7.34235 7.84644 7.44814 7.7494C7.55431 7.65168 7.67829 7.58267 7.82007 7.54237C7.96763 7.50043 8.10498 7.49743 8.23211 7.53337C8.35977 7.56917 8.46608 7.64367 8.55103 7.75687C8.63599 7.87007 8.68933 8.02177 8.71104 8.21197ZM8.30815 8.27711C8.29562 8.17113 8.27136 8.0858 8.23538 8.02111C8.19993 7.95627 8.15409 7.91283 8.09788 7.89078C8.04152 7.8682 7.97632 7.86744 7.90227 7.88849C7.82035 7.91177 7.75206 7.95303 7.69738 8.01228C7.64309 8.07084 7.60478 8.14473 7.58246 8.23394C7.55999 8.32262 7.55547 8.42351 7.56889 8.53661C7.58014 8.64409 7.60387 8.72957 7.64008 8.79306C7.67681 8.8564 7.72373 8.89868 7.78084 8.91991C7.83781 8.94061 7.90279 8.94059 7.97578 8.91984C8.05717 8.8967 8.12483 8.85619 8.17875 8.7983C8.23267 8.7404 8.27068 8.66745 8.29277 8.57944C8.31539 8.49129 8.32051 8.39051 8.30815 8.27711Z" fill="white"/>
<path d="M9.03081 8.9656L8.8401 7.27628L9.50649 7.08687C9.62727 7.05254 9.73447 7.04732 9.8281 7.07122C9.92173 7.09512 9.99729 7.1443 10.0548 7.21877C10.1123 7.29324 10.1476 7.38849 10.1607 7.50451C10.1746 7.62144 10.1621 7.73027 10.1232 7.831C10.0848 7.93159 10.0233 8.0186 9.93863 8.09205C9.85394 8.1655 9.74937 8.21991 9.62491 8.25529L9.21452 8.37193L9.17841 8.05018L9.51711 7.95391C9.57645 7.93704 9.62474 7.91225 9.66198 7.87953C9.69975 7.84666 9.72653 7.80811 9.74234 7.76389C9.75815 7.71967 9.76316 7.67142 9.75739 7.61915C9.75108 7.56702 9.73569 7.52485 9.71122 7.49265C9.68659 7.45992 9.65306 7.4388 9.61063 7.4293C9.56872 7.41964 9.51863 7.4231 9.46034 7.43967L9.26814 7.4943L9.42072 8.85477L9.03081 8.9656Z" fill="white"/>
<path d="M11.2133 7.12784C11.2007 7.0673 11.1719 7.02583 11.1269 7.00342C11.0825 6.98087 11.0222 6.98041 10.946 7.00205C10.8956 7.01638 10.8544 7.03518 10.8224 7.05846C10.7903 7.08121 10.7673 7.10705 10.7534 7.13598C10.7393 7.16438 10.7339 7.1943 10.7372 7.22572C10.7392 7.2507 10.7465 7.27133 10.759 7.28762C10.7716 7.30391 10.7891 7.31653 10.8115 7.32548C10.8344 7.33429 10.8613 7.33999 10.8921 7.34258C10.9235 7.34502 10.9579 7.34518 10.9953 7.34306L11.1366 7.33695C11.2182 7.33249 11.2912 7.33671 11.3556 7.34962C11.4203 7.36186 11.4761 7.38319 11.5227 7.41363C11.5693 7.44354 11.6065 7.48262 11.6344 7.53088C11.6623 7.57913 11.6799 7.63712 11.6872 7.70485C11.6994 7.8115 11.6841 7.91035 11.6413 8.00141C11.599 8.09231 11.5325 8.17167 11.4416 8.23949C11.3513 8.30715 11.239 8.36009 11.1045 8.3983C10.9701 8.43652 10.8501 8.44876 10.7446 8.43505C10.6395 8.42065 10.5542 8.37821 10.4888 8.3077C10.4234 8.2372 10.3825 8.13643 10.3663 8.0054L10.7388 7.8995C10.7478 7.95313 10.7667 7.99459 10.7955 8.02387C10.8248 8.05301 10.8622 8.07076 10.9077 8.07712C10.9532 8.08348 11.0046 8.07853 11.0618 8.06226C11.1143 8.04733 11.1582 8.02718 11.1936 8.00181C11.2295 7.97629 11.2556 7.94756 11.2721 7.91564C11.2891 7.88357 11.2956 7.85051 11.2916 7.81646C11.2883 7.78503 11.276 7.76046 11.2545 7.74273C11.2335 7.72485 11.2028 7.71285 11.1625 7.70672C11.1227 7.70044 11.0723 7.69887 11.0113 7.70201L10.8387 7.70853C10.696 7.71388 10.5802 7.69063 10.4911 7.63876C10.4025 7.58675 10.3508 7.49673 10.336 7.3687C10.3243 7.26363 10.3408 7.16414 10.3857 7.07024C10.431 6.97619 10.4987 6.89394 10.5888 6.8235C10.6793 6.75239 10.7859 6.69936 10.9088 6.66444C11.0338 6.62891 11.1449 6.62033 11.242 6.63868C11.3396 6.65636 11.4181 6.69816 11.4777 6.76409C11.5377 6.82933 11.574 6.91521 11.5867 7.02171L11.2133 7.12784Z" fill="white"/>
<path d="M5.26612 12.2704C5.1527 12.3026 5.05269 12.3092 4.9661 12.2901C4.87952 12.271 4.81024 12.2319 4.75828 12.1729C4.70617 12.1134 4.67474 12.0397 4.66398 11.952C4.65687 11.887 4.66228 11.8262 4.68021 11.7695C4.69866 11.7126 4.72715 11.6571 4.7657 11.603C4.80476 11.5487 4.85081 11.4931 4.90383 11.436L5.2172 11.1128C5.25287 11.0766 5.27687 11.0422 5.28922 11.0098C5.30141 10.9768 5.30614 10.9465 5.3034 10.9189C5.30112 10.8889 5.28743 10.8647 5.26233 10.8463C5.23724 10.8279 5.20237 10.825 5.15773 10.8377C5.13043 10.8455 5.10679 10.8582 5.08682 10.8758C5.06737 10.8932 5.0528 10.9138 5.04309 10.9376C5.03391 10.9612 5.03114 10.9864 5.03477 11.0132C5.03983 11.0469 5.05369 11.0787 5.07638 11.1086C5.09958 11.1383 5.1289 11.1686 5.16433 11.1994C5.19961 11.2296 5.23844 11.2634 5.28083 11.3008L6.15715 11.9907L5.76488 12.1022L5.03685 11.5506C4.9946 11.5178 4.95004 11.4808 4.90315 11.4396C4.85664 11.3978 4.81587 11.3492 4.78085 11.2939C4.74621 11.2379 4.72478 11.1725 4.71655 11.0976C4.70737 11.0134 4.71768 10.9319 4.74748 10.853C4.77781 10.774 4.82481 10.7048 4.88849 10.6452C4.95201 10.5852 5.02919 10.5422 5.12004 10.5164C5.20879 10.4912 5.28745 10.4884 5.35604 10.5081C5.42463 10.5278 5.47977 10.564 5.52147 10.6169C5.56369 10.6696 5.58865 10.7334 5.59635 10.8084C5.60591 10.888 5.59576 10.9661 5.56588 11.0427C5.53601 11.1193 5.48968 11.1929 5.42689 11.2635L5.12249 11.6063C5.09132 11.6424 5.06724 11.6785 5.05024 11.7145C5.03362 11.7499 5.02693 11.7853 5.03018 11.8207C5.03531 11.8567 5.04783 11.8857 5.06775 11.9079C5.08766 11.93 5.11337 11.9446 5.14485 11.9515C5.17686 11.9583 5.21335 11.9559 5.25431 11.9443C5.30945 11.9286 5.36277 11.8995 5.41427 11.8571C5.46562 11.8141 5.51083 11.7615 5.54991 11.6993C5.58937 11.6365 5.61848 11.5672 5.63726 11.4915C5.65641 11.4151 5.66143 11.3359 5.65232 11.2539L5.96267 11.1657C5.97543 11.2665 5.97654 11.3632 5.96599 11.4559C5.95581 11.5479 5.93425 11.6338 5.90129 11.7135C5.86886 11.7931 5.82497 11.8643 5.76962 11.9272C5.75213 11.9435 5.73474 11.9592 5.71748 11.9744C5.70021 11.9895 5.68283 12.0052 5.66533 12.0215C5.60975 12.0856 5.54691 12.1381 5.47682 12.179C5.40672 12.2199 5.33649 12.2504 5.26612 12.2704Z" fill="white"/>
<path d="M6.57365 11.8723L5.91346 10.3164L6.34433 10.194L6.71411 11.2314L6.7275 11.2275L6.87918 10.042L7.23049 9.9421L7.6356 10.972L7.6482 10.9684L7.76612 9.78985L8.1962 9.6676L7.91824 11.4901L7.54251 11.5969L7.13761 10.6547L7.12501 10.6582L6.94859 11.7657L6.57365 11.8723Z" fill="white"/>
<path d="M8.74719 9.51099L8.9379 11.2003L8.548 11.3111L8.35728 9.62182L8.74719 9.51099Z" fill="white"/>
<path d="M10.3649 9.05117L10.5556 10.7405L10.2248 10.8345L9.47415 10.0416L9.46312 10.0447L9.57259 11.0199L9.18268 11.1307L8.99196 9.44142L9.32752 9.34604L10.0738 10.1385L10.0872 10.1347L9.97579 9.16178L10.3649 9.05117Z" fill="white"/>
<path d="M11.5385 9.24372C11.5258 9.18318 11.497 9.14171 11.4521 9.1193C11.4076 9.09675 11.3473 9.09629 11.2712 9.11793C11.2208 9.13226 11.1796 9.15107 11.1476 9.17434C11.1155 9.1971 11.0925 9.22294 11.0785 9.25186C11.0645 9.28026 11.0591 9.31018 11.0623 9.3416C11.0643 9.36658 11.0716 9.38721 11.0842 9.4035C11.0968 9.41979 11.1143 9.43241 11.1367 9.44137C11.1596 9.45017 11.1865 9.45587 11.2173 9.45846C11.2486 9.4609 11.283 9.46106 11.3204 9.45894L11.4617 9.45283C11.5433 9.44837 11.6163 9.45259 11.6807 9.46551C11.7455 9.47774 11.8012 9.49908 11.8479 9.52951C11.8944 9.55942 11.9316 9.5985 11.9595 9.64676C11.9874 9.69502 12.0051 9.75301 12.0124 9.82073C12.0245 9.92738 12.0092 10.0262 11.9664 10.1173C11.9242 10.2082 11.8576 10.2876 11.7668 10.3554C11.6765 10.423 11.5641 10.476 11.4297 10.5142C11.2952 10.5524 11.1753 10.5646 11.0698 10.5509C10.9647 10.5365 10.8794 10.4941 10.814 10.4236C10.7485 10.3531 10.7077 10.2523 10.6914 10.1213L11.064 10.0154C11.073 10.069 11.0919 10.1105 11.1206 10.1398C11.1499 10.1689 11.1873 10.1866 11.2328 10.193C11.2783 10.1994 11.3297 10.1944 11.3869 10.1781C11.4395 10.1632 11.4834 10.1431 11.5187 10.1177C11.5546 10.0922 11.5808 10.0634 11.5973 10.0315C11.6143 9.99945 11.6208 9.96639 11.6168 9.93234C11.6135 9.90091 11.6011 9.87634 11.5796 9.85861C11.5586 9.84073 11.528 9.82873 11.4877 9.8226C11.4478 9.81632 11.3975 9.81475 11.3365 9.8179L11.1638 9.82441C11.0212 9.82976 10.9053 9.80651 10.8162 9.75465C10.7277 9.70263 10.676 9.61261 10.6611 9.48458C10.6494 9.37951 10.666 9.28002 10.7108 9.18612C10.7562 9.09207 10.8239 9.00983 10.914 8.93938C11.0044 8.86827 11.1111 8.81525 11.234 8.78032C11.3589 8.74479 11.47 8.73621 11.5672 8.75456C11.6647 8.77224 11.7433 8.81405 11.8029 8.87997C11.8629 8.94522 11.8992 9.03109 11.9119 9.13759L11.5385 9.24372Z" fill="white"/>
<path d="M6.24923 6.61314C6.82271 6.22995 7.49694 6.02543 8.18666 6.02543C8.92334 6.02543 9.636 6.25852 10.226 6.68387L9.75213 6.81388C9.63286 6.7447 9.5087 6.68323 9.38033 6.63007C8.81002 6.39387 8.18246 6.33209 7.57704 6.45256C6.97161 6.57303 6.41551 6.87033 5.97905 7.30686C5.77486 7.51109 5.60114 7.74151 5.46176 7.9909L4.98933 8.12051C5.25598 7.5081 5.69313 6.98471 6.24923 6.61314Z" fill="white"/>
<path d="M6.0683 12.2829C6.49005 12.6054 6.98161 12.8286 7.50633 12.933C8.18279 13.0675 8.88397 12.9985 9.52119 12.7345C10.1584 12.4706 10.703 12.0236 11.0862 11.4501C11.2204 11.2493 11.3327 11.036 11.422 10.8141L10.9619 10.9404C10.8152 11.2256 10.6242 11.4892 10.3932 11.7202C9.808 12.3055 9.0143 12.6344 8.18666 12.6345C7.59896 12.6346 7.02379 12.4688 6.52702 12.157L6.0683 12.2829Z" fill="white"/>
<path d="M7.39749 5.1764C7.39749 5.1764 7.25361 4.21671 8.08149 3.59092C7.6449 4.49871 7.88599 5.43588 7.95381 5.6583C7.35188 5.67917 6.76579 5.85652 6.25328 6.17288C6.17694 5.93399 5.84331 5.04349 4.9833 4.54923C6.02015 4.59811 6.44329 5.4713 6.44329 5.4713C6.44329 5.4713 6.11022 4.06294 6.20138 3C6.87714 3.82569 7.39749 5.1764 7.39749 5.1764Z" fill="white"/>
</g>
<defs>
<clipPath id="clip0_2412_577">
<rect width="10" height="10" fill="white" transform="translate(3 3)"/>
</clipPath>
</defs>
</svg>
