<svg width="16" height="16" viewBox="0 0 16 16" fill="none" xmlns="http://www.w3.org/2000/svg">
<path d="M11 0H5C2.23858 0 0 2.23858 0 5V11C0 13.7614 2.23858 16 5 16H11C13.7614 16 16 13.7614 16 11V5C16 2.23858 13.7614 0 11 0Z" fill="#00A1FF"/>
<path d="M6.12655 6.74351C6.21121 6.32584 6.05458 6.02154 5.77897 5.82164C5.51746 5.64715 5.19388 5.62551 4.85476 5.7953L3.41882 6.44061C3.06184 6.60146 2.90239 7.02147 3.06184 7.37939C3.22128 7.73732 3.64082 7.89724 3.99781 7.73732L4.19018 7.65078L3.88116 9.32846C3.79227 9.83126 4.12198 10.2494 4.56974 10.334C5.04477 10.4234 5.50194 10.1125 5.58143 9.64077L6.12655 6.74351Z" fill="white"/>
<path d="M6.33024 5.69024C6.51838 5.91365 6.73896 6.1968 6.62984 6.86327L6.33495 8.43231L6.38903 9.69657C6.39939 10.1472 6.61715 10.3475 6.99859 10.3475L7.95667 10.3489C8.26097 10.3489 8.38279 10.118 8.50602 9.82544L9.23692 8.03017L9.31123 9.7436C9.31781 10.1236 9.51113 10.3489 9.86247 10.3489L10.9551 10.348C11.2655 10.348 11.3953 10.1627 11.5312 9.8278L12.9258 6.39105C13.0767 6.035 12.9902 5.68883 12.6125 5.68883H11.9131C11.6526 5.68883 11.4776 5.77867 11.3751 6.02606L10.4335 8.3293L10.3469 6.2744C10.3328 5.83793 10.123 5.68883 9.87846 5.68883H9.1659C8.88417 5.68883 8.72049 5.80077 8.63301 6.01383L7.68764 8.32978L7.60297 6.22455C7.59074 5.82946 7.45905 5.6893 7.14157 5.6893L6.52684 5.69071L6.33024 5.69024Z" fill="white"/>
</svg>
