<svg width="16" height="16" viewBox="0 0 16 16" fill="none" xmlns="http://www.w3.org/2000/svg">
<path d="M11 0H5C2.23858 0 0 2.23858 0 5V11C0 13.7614 2.23858 16 5 16H11C13.7614 16 16 13.7614 16 11V5C16 2.23858 13.7614 0 11 0Z" fill="#F22053"/>
<g clip-path="url(#clip0_3494_794)">
<path d="M5.48996 8.01039L5.49475 7.99321C5.9671 6.29666 7.12957 4.6026 8.87075 3.08774C8.90597 3.05702 8.9469 3.03353 8.99119 3.01862C9.03557 3.00367 9.08247 2.99763 9.12919 3.00083C9.17591 3.00404 9.22153 3.01642 9.26346 3.03728C9.30539 3.05814 9.34279 3.08706 9.37352 3.12239C9.40426 3.15772 9.42772 3.19877 9.44257 3.24318C9.45743 3.28759 9.46337 3.3345 9.46008 3.38121C9.45678 3.42792 9.4443 3.47352 9.42336 3.51541C9.40246 3.5572 9.37354 3.59448 9.33825 3.6251C9.12879 3.80777 8.92848 3.99252 8.7373 4.17934C8.56735 5.06518 9.11474 5.74905 9.70335 6.4707L9.70862 6.47716C10.027 6.86755 10.352 7.26622 10.5053 7.69147L10.5134 7.71391C12.1343 7.46063 12.9857 8.44036 12.9286 9.76599C12.8652 11.249 11.7256 12.4532 10.2426 12.4532C9.77862 12.455 9.32511 12.3326 8.92785 12.102C9.27341 11.5494 9.48084 10.9003 9.51032 10.2146C9.54727 9.3549 9.29462 8.50825 8.66809 7.91387C8.64382 7.89084 8.61916 7.86836 8.59413 7.84643C8.90177 7.70988 9.27553 7.64883 9.71161 7.68314C9.54834 7.4147 9.36197 7.16093 9.15459 6.92473L9.15295 6.92286L9.1446 6.91262C8.69431 6.36055 8.17271 5.72105 8.03135 4.92631C7.15681 5.9333 6.54878 6.98112 6.22986 8.01805C6.93768 7.91779 7.50258 8.04439 7.9137 8.32878C8.05124 8.42392 8.17158 8.53674 8.2743 8.66462C8.58726 9.05426 8.73666 9.58384 8.71103 10.1802C8.64414 11.736 7.4485 13 5.89122 13C4.33394 13 3.1383 11.736 3.07142 10.1802C3.01298 8.82056 3.8648 7.80873 5.48996 8.01039Z" fill="white"/>
<path d="M10.0459 5.34041C10.8088 6.01814 11.4103 6.1171 12.0964 6.22997C12.1717 6.24236 12.2482 6.25494 12.3258 6.26844C12.2964 6.12765 12.2703 5.99935 12.2464 5.88188C12.0403 4.86857 11.9983 4.66183 11.385 4.19937C10.8236 3.77603 9.53706 3.69119 9.35299 3.72085C9.34352 4.02499 9.40063 4.32752 9.52033 4.60727C9.64002 4.88703 9.8194 5.13724 10.0459 5.34041Z" fill="white"/>
</g>
<defs>
<clipPath id="clip0_3494_794">
<rect width="10" height="10" fill="white" transform="translate(3 3)"/>
</clipPath>
</defs>
</svg>
