<svg width="16" height="16" viewBox="0 0 16 16" fill="none" xmlns="http://www.w3.org/2000/svg">
<path d="M11 0H5C2.23858 0 0 2.23858 0 5V11C0 13.7614 2.23858 16 5 16H11C13.7614 16 16 13.7614 16 11V5C16 2.23858 13.7614 0 11 0Z" fill="#00ADD3"/>
<path d="M12.7879 6.60339C12.7879 6.60339 11.2524 3 8.0425 3H3.21225V8.16204C3.21225 8.68673 3.87583 9.49691 4.50855 9.49691H9.94836L9.87892 10.1605H5.61966C3.89126 10.1605 3.21225 9.39661 3.21225 9.39661C3.21225 9.39661 4.65515 13 8.35114 13H12.7879V7.99228C12.7879 7.4213 12.4561 6.54938 11.2138 6.54938H6.05176V5.74691H10.6197C11.7308 5.80093 12.7879 6.60339 12.7879 6.60339Z" fill="white"/>
</svg>
