<svg width="16" height="16" viewBox="0 0 16 16" fill="none" xmlns="http://www.w3.org/2000/svg">
<path d="M11 0H5C2.23858 0 0 2.23858 0 5V11C0 13.7614 2.23858 16 5 16H11C13.7614 16 16 13.7614 16 11V5C16 2.23858 13.7614 0 11 0Z" fill="#00ADD3"/>
<g clip-path="url(#clip0_2412_581)">
<path d="M10.8943 7.99956C10.8943 7.41807 11.3612 6.94318 11.9515 6.94318C12.533 6.94318 13 7.41807 13 7.99956C13 8.58106 12.533 9.05683 11.9515 9.05683C11.3612 9.05683 10.8943 8.58106 10.8943 7.99956Z" fill="white"/>
<path d="M6.94714 7.99956C6.94714 7.41807 7.42291 6.94318 8.00441 6.94318C8.5859 6.94318 9.05286 7.41807 9.05286 7.99956C9.05286 8.58106 8.5859 9.05683 8.00441 9.05683C7.42291 9.05683 6.94714 8.58106 6.94714 7.99956Z" fill="white"/>
<path d="M3 7.99956C3 7.41807 3.47577 6.94318 4.05727 6.94318C4.63877 6.94318 5.10573 7.41807 5.10573 7.99956C5.10573 8.58106 4.63877 9.05683 4.05727 9.05683C3.47577 9.05683 3 8.58106 3 7.99956Z" fill="white"/>
</g>
<defs>
<clipPath id="clip0_2412_581">
<rect width="10" height="10" fill="white" transform="translate(3 3)"/>
</clipPath>
</defs>
</svg>
