<svg width="16" height="16" viewBox="0 0 16 16" fill="none" xmlns="http://www.w3.org/2000/svg">
<path d="M11 0H5C2.23858 0 0 2.23858 0 5V11C0 13.7614 2.23858 16 5 16H11C13.7614 16 16 13.7614 16 11V5C16 2.23858 13.7614 0 11 0Z" fill="#FF511E"/>
<path fill-rule="evenodd" clip-rule="evenodd" d="M5.06778 6.60204C4.85364 6.60204 4.68004 6.77564 4.68004 6.98979V8.40365C4.68004 8.6178 4.85364 8.7914 5.06778 8.7914H5.85195C6.06609 8.7914 6.23969 8.6178 6.23969 8.40365V6.98979C6.23969 6.77564 6.06609 6.60204 5.85195 6.60204H5.06778ZM5.50629 7.0939C5.59165 7.35728 5.79959 7.56516 6.06252 7.65019C6.08277 7.65679 6.09648 7.6756 6.09648 7.69682C6.09648 7.71805 6.08277 7.73686 6.06252 7.74345C5.79959 7.82842 5.59159 8.03636 5.50629 8.29969C5.49976 8.31987 5.48095 8.33358 5.45973 8.33358C5.43844 8.33358 5.41963 8.31987 5.4131 8.29969C5.3278 8.03636 5.1198 7.82842 4.85687 7.74345C4.83662 7.73686 4.82297 7.71805 4.82297 7.69682C4.82297 7.6756 4.83662 7.65679 4.85687 7.65019C5.1198 7.56516 5.32774 7.35728 5.4131 7.0939C5.41963 7.07378 5.43844 7.06007 5.45973 7.06007C5.48095 7.06007 5.49976 7.07378 5.50629 7.0939Z" fill="white"/>
<path fill-rule="evenodd" clip-rule="evenodd" d="M6.98774 6.60231C6.77359 6.60231 6.59999 6.77591 6.59999 6.99006V8.40392C6.59999 8.61807 6.77359 8.79167 6.98774 8.79167H7.7719C7.98605 8.79167 8.15965 8.61807 8.15965 8.40392V6.99006C8.15965 6.77591 7.98605 6.60231 7.7719 6.60231H6.98774ZM7.42536 7.0939C7.51071 7.35728 7.71866 7.56516 7.98159 7.65019C8.00183 7.65679 8.01555 7.6756 8.01555 7.69682C8.01555 7.71805 8.00183 7.73686 7.98159 7.74345C7.71866 7.82842 7.51065 8.03636 7.42536 8.29969C7.41882 8.31987 7.40002 8.33358 7.37879 8.33358C7.3575 8.33358 7.33869 8.31987 7.33216 8.29969C7.24687 8.03636 7.03886 7.82842 6.77593 7.74345C6.75568 7.73686 6.74203 7.71805 6.74203 7.69682C6.74203 7.6756 6.75568 7.65679 6.77593 7.65019C7.03886 7.56516 7.2468 7.35728 7.33216 7.0939C7.33869 7.07378 7.3575 7.06007 7.37879 7.06007C7.40002 7.06007 7.41882 7.07378 7.42536 7.0939Z" fill="white"/>
<path fill-rule="evenodd" clip-rule="evenodd" d="M8.8651 6.60231C8.65096 6.60231 8.47736 6.77591 8.47736 6.99006V8.40392C8.47736 8.61807 8.65096 8.79167 8.8651 8.79167H9.64927C9.86341 8.79167 10.037 8.61807 10.037 8.40392V6.99006C10.037 6.77591 9.86341 6.60231 9.64927 6.60231H8.8651ZM9.30373 7.0939C9.38909 7.35728 9.59703 7.56516 9.85996 7.65019C9.88021 7.65679 9.89392 7.6756 9.89392 7.69682C9.89392 7.71805 9.88021 7.73686 9.85996 7.74345C9.59703 7.82842 9.38902 8.03636 9.30373 8.29969C9.2972 8.31987 9.27839 8.33358 9.25717 8.33358C9.23588 8.33358 9.21707 8.31987 9.21054 8.29969C9.12524 8.03636 8.91724 7.82842 8.6543 7.74345C8.63406 7.73686 8.62041 7.71805 8.62041 7.69682C8.62041 7.6756 8.63406 7.65679 8.6543 7.65019C8.91724 7.56516 9.12518 7.35728 9.21054 7.0939C9.21707 7.07378 9.23588 7.06007 9.25717 7.06007C9.27839 7.06007 9.2972 7.07378 9.30373 7.0939Z" fill="white"/>
<path fill-rule="evenodd" clip-rule="evenodd" d="M12.0119 5.96199V7.26575C12.0119 7.34478 11.9527 7.40405 11.8736 7.40405H11.6464V7.18672C11.6464 6.94963 11.4587 6.76194 11.2217 6.76194H11.1328V5.71481C11.1328 5.26039 10.7672 4.885 10.3029 4.885H9.41387C9.03848 4.21326 8.26795 3.74896 7.37888 3.74896C6.4898 3.74896 5.71927 4.21326 5.34388 4.885H4.4548C4.00039 4.885 3.625 5.25051 3.625 5.71481V9.68601C3.625 10.1404 3.99051 10.5158 4.4548 10.5158H4.84721L4.58444 11.2123C4.49191 11.4576 4.67316 11.7197 4.93531 11.7197H9.82485C10.087 11.7197 10.2683 11.4576 10.1757 11.2123L9.91288 10.5158H10.3128C10.7672 10.5158 11.1426 10.1503 11.1426 9.68601V8.629H11.2315C11.4686 8.629 11.6563 8.44131 11.6563 8.20422V7.98689H11.8638C12.2688 7.98689 12.5849 7.6609 12.5849 7.26575V5.95345C12.8299 5.84112 13 5.59373 13 5.3066C13 4.91378 12.6816 4.59534 12.2887 4.59534C11.8959 4.59534 11.5775 4.91378 11.5775 5.3066C11.5775 5.60124 11.7566 5.85403 12.0119 5.96199ZM4.17663 9.5879H5.0561V9.59094H9.87818C9.90036 9.59094 9.92231 9.58991 9.94397 9.5879H10.0817C10.3542 9.5879 10.5751 9.36699 10.5751 9.09447V8.98136C10.5792 8.95076 10.5813 8.91953 10.5813 8.8878V6.50995C10.5813 6.47823 10.5792 6.447 10.5751 6.41639V6.29606C10.5751 6.02355 10.3542 5.80263 10.0817 5.80263H4.67005C4.39754 5.80263 4.17663 6.02355 4.17663 6.29606V9.5879Z" fill="white"/>
</svg>
